<svg xmlns="http://www.w3.org/2000/svg" width="24" height="24" fill="none" viewBox="0 0 24 24">
  <path fill="#FFEAB6" d="m10.825 18.45-3.6-3.55 1.2-1.225 2.4 2.4 4.625-4.625 1.15 1.225-5.775 5.775Zm-6.075 4.1c-.617 0-1.15-.23-1.6-.688-.45-.458-.675-.987-.675-1.587V5.25c0-.634.225-1.175.675-1.625.45-.45.983-.675 1.6-.675h1.475V1.425H8.2V2.95h7.6V1.425h1.975V2.95h1.475c.633 0 1.175.225 1.625.675.45.45.675.991.675 1.625v15.025c0 .6-.225 1.129-.675 1.587-.45.459-.992.688-1.625.688H4.75Zm0-2.275h14.5V9.8H4.75v10.475Z"/>
</svg>
