<svg xmlns="http://www.w3.org/2000/svg" width="24" height="24" fill="none" viewBox="0 0 24 24">
  <path fill="#FFEAB6" d="M18.942 5.523a16.288 16.288 0 0 0-4.126-1.296c-.178.32-.386.753-.529 1.097a15.15 15.15 0 0 0-4.573 0 11.73 11.73 0 0 0-.535-1.097c-1.448.25-2.834.692-4.129 1.3-2.61 3.944-3.319 7.793-2.965 11.586a16.495 16.495 0 0 0 5.06 2.593 12.5 12.5 0 0 0 1.084-1.785 10.65 10.65 0 0 1-1.706-.83c.143-.107.283-.218.418-.332 3.29 1.54 6.866 1.54 10.118 0 .137.114.277.225.418.331a10.63 10.63 0 0 1-1.71.832c.314.627.675 1.225 1.084 1.786a16.464 16.464 0 0 0 5.064-2.595c.415-4.398-.71-8.21-2.973-11.59ZM8.678 14.781c-.988 0-1.798-.922-1.798-2.046 0-1.122.792-2.046 1.798-2.046 1.005 0 1.815.922 1.798 2.046.001 1.124-.793 2.046-1.798 2.046Zm6.644 0c-.988 0-1.798-.922-1.798-2.046 0-1.122.793-2.046 1.798-2.046 1.006 0 1.816.922 1.798 2.046 0 1.124-.793 2.046-1.798 2.046Z"/>
</svg>
