<svg xmlns="http://www.w3.org/2000/svg" width="28" height="28" fill="none" viewBox="0 0 28 28">
  <path fill="#FFEAB6" d="M6.705 20.452c-1.76 0-3.24-.64-4.438-1.92C1.07 17.253.471 15.724.471 13.946c0-1.76.603-3.267 1.81-4.52 1.207-1.252 2.681-1.878 4.424-1.878.707 0 1.388.118 2.041.354a5.138 5.138 0 0 1 1.77 1.09l2.286 2.177-1.85 1.77-2.07-2.015c-.29-.29-.626-.5-1.007-.626a3.677 3.677 0 0 0-1.17-.19c-1.035 0-1.906.376-2.614 1.129S3.03 12.893 3.03 13.946c0 1.088.353 2.018 1.061 2.79.708.771 1.58 1.157 2.614 1.157.399 0 .784-.064 1.157-.19a2.994 2.994 0 0 0 1.02-.6l8.603-8.112a4.842 4.842 0 0 1 1.755-1.089 6.003 6.003 0 0 1 2.029-.354c1.742 0 3.22.626 4.437 1.879 1.216 1.252 1.824 2.758 1.824 4.519 0 1.778-.604 3.307-1.81 4.586-1.207 1.28-2.691 1.92-4.451 1.92-.69 0-1.37-.114-2.042-.34a4.437 4.437 0 0 1-1.742-1.076l-2.205-2.178 1.824-1.77 2.014 2.015c.272.273.599.472.98.6.381.126.771.19 1.17.19 1.053 0 1.933-.386 2.641-1.157.708-.772 1.062-1.702 1.062-2.79 0-1.053-.359-1.956-1.076-2.709-.716-.753-1.592-1.13-2.627-1.13a3.155 3.155 0 0 0-2.15.844l-8.602 8.112a4.79 4.79 0 0 1-1.783 1.062 6.453 6.453 0 0 1-2.028.327Z"/>
</svg>
