<svg xmlns="http://www.w3.org/2000/svg" width="24" height="24" fill="none" viewBox="0 0 24 24">
  <path fill="#FFEAB6" d="m9.25 16.425 2.75-2.15 2.775 2.15-1.05-3.4 2.6-2.15h-3.2L12 7.65l-1.125 3.225H7.7l2.575 2.15-1.025 3.4ZM3.525 20.55c-.55 0-1.03-.204-1.438-.612-.408-.409-.612-.888-.612-1.438v-4.125a2.82 2.82 0 0 0 1.487-.837c.425-.442.638-.954.638-1.538 0-.617-.213-1.142-.638-1.575A2.855 2.855 0 0 0 1.475 9.6V5.525c0-.583.204-1.075.612-1.475.408-.4.888-.6 1.438-.6h16.95c.583 0 1.075.2 1.475.6.4.4.6.892.6 1.475V9.6a2.863 2.863 0 0 0-1.513.825A2.166 2.166 0 0 0 20.4 12c0 .584.212 1.096.637 1.538.425.441.93.72 1.513.837V18.5c0 .55-.2 1.03-.6 1.438-.4.408-.892.612-1.475.612H3.525Z"/>
</svg>
