<svg xmlns="http://www.w3.org/2000/svg" width="28" height="28" fill="none" viewBox="0 0 28 28">
  <g clip-path="url(#a)">
    <path fill="#FFEAB6" d="M-.35 21.35v-1.896c0-.875.438-1.575 1.313-2.1.875-.525 2.012-.787 3.412-.787h.35a2 2 0 0 1 .321.029c-.175.37-.316.763-.423 1.18-.107.419-.16.861-.16 1.328v2.246H-.35Zm7 0v-2.246c0-1.38.68-2.489 2.042-3.325 1.361-.836 3.13-1.254 5.308-1.254 2.217 0 3.996.418 5.338 1.254 1.342.836 2.012 1.944 2.012 3.325v2.246H6.65Zm16.888 0v-2.246a5.846 5.846 0 0 0-.554-2.508c.116-.02.228-.03.335-.03h.306c1.44 0 2.587.263 3.442.788.856.525 1.283 1.225 1.283 2.1v1.896h-4.812ZM4.375 15.779a2.142 2.142 0 0 1-1.59-.67 2.214 2.214 0 0 1-.655-1.605c0-.622.218-1.152.656-1.59a2.165 2.165 0 0 1 1.59-.656c.622 0 1.156.219 1.604.656.447.438.67.978.67 1.62 0 .602-.218 1.127-.656 1.574a2.175 2.175 0 0 1-1.619.671Zm19.25 0a2.142 2.142 0 0 1-1.59-.67 2.214 2.214 0 0 1-.655-1.605c0-.622.218-1.152.656-1.59a2.165 2.165 0 0 1 1.59-.656c.622 0 1.156.219 1.604.656.447.438.67.978.67 1.62 0 .602-.218 1.127-.656 1.574a2.175 2.175 0 0 1-1.619.671ZM14 13.679c-1.07 0-1.978-.374-2.727-1.123-.748-.748-1.123-1.658-1.123-2.727 0-1.089.375-2.003 1.123-2.742.749-.739 1.658-1.108 2.727-1.108 1.09 0 2.003.37 2.742 1.108.739.74 1.108 1.653 1.108 2.742 0 1.07-.37 1.978-1.108 2.727-.739.749-1.653 1.123-2.742 1.123Z"/>
  </g>
  <defs>
    <clipPath id="a">
      <path fill="#fff" d="M0 0h28v28H0z"/>
    </clipPath>
  </defs>
</svg>
