<svg xmlns="http://www.w3.org/2000/svg" width="24" height="24" fill="none" viewBox="0 0 24 24">
  <path fill="#FFEAB6" d="M12 11.675c-1.284 0-2.322-.4-3.113-1.2-.792-.8-1.188-1.833-1.188-3.1 0-1.266.396-2.3 1.188-3.1.791-.8 1.829-1.2 3.112-1.2 1.267 0 2.304.396 3.113 1.188.808.791 1.212 1.829 1.212 3.112 0 1.267-.4 2.3-1.2 3.1-.8.8-1.841 1.2-3.125 1.2ZM3.45 20.75v-2.9c0-.733.19-1.37.574-1.912A3.728 3.728 0 0 1 5.5 14.7a16.845 16.845 0 0 1 3.288-1.175c1.058-.25 2.12-.375 3.187-.375 1.1 0 2.175.133 3.225.4 1.05.267 2.142.65 3.275 1.15A3.45 3.45 0 0 1 20 15.925c.384.55.575 1.192.575 1.925v2.9H3.45Z"/>
</svg>
