<svg width="336" height="125" viewBox="0 0 336 125" fill="none" xmlns="http://www.w3.org/2000/svg">
<path d="M170.137 47.0132C165.072 45.735 160.21 53.775 157.559 64.5371C154.908 75.2995 155.471 84.7085 160.536 85.9868C165.602 87.2651 170.463 79.225 173.114 68.4627C175.766 57.7005 175.202 48.2913 170.137 47.0132ZM186.052 66.4999C185.46 78.3741 176.311 88 164.265 88C152.219 88 144.03 78.3741 144.622 66.4999C145.213 54.6256 154.363 45 166.408 45C178.454 45 186.644 54.6256 186.052 66.4999ZM214.055 47.0132C208.99 45.735 204.128 53.775 201.477 64.5371C198.826 75.2995 199.389 84.7085 204.454 85.9868C209.52 87.2651 214.381 79.225 217.032 68.4627C219.683 57.7005 219.12 48.2913 214.055 47.0132ZM229.97 66.4999C229.378 78.3741 220.229 88 208.183 88C196.137 88 187.948 78.3741 188.54 66.4999C189.131 54.6256 198.281 45 210.327 45C222.372 45 230.562 54.6256 229.97 66.4999ZM142.558 73.1722C142.229 82.7084 133.389 87.8807 124.289 87.8807C116.579 87.8807 109.379 83.7075 106 81.1695L109.802 70.4775L110.028 70.5599C116.28 80.0183 121.593 86.5327 127.146 86.0258C130.819 85.6905 133.002 83.424 133.156 78.933C133.372 72.6858 128.66 64.9409 110.934 68.1367L110.668 68.0399L118.648 45.5966H145.394L141.803 55.6957H116.746L114.383 62.3415C128.542 54.9803 142.917 62.7457 142.558 73.1722Z" fill="#F5F5EB"/>
</svg>
