<svg xmlns="http://www.w3.org/2000/svg" width="18" height="18" fill="none" viewBox="0 0 18 18">
  <path fill="#EF68FF" d="M1 7.966A6.966 6.966 0 0 1 7.966 1c.192 0 .348.156.348.348V7.4a.914.914 0 0 1-.914.914H1.348A.348.348 0 0 1 1 7.966Z"/>
  <path fill="#3D4F77" d="M7.966 17A6.966 6.966 0 0 1 1 10.034c0-.192.156-.348.348-.348H7.4c.505 0 .914.41.914.914v6.052a.348.348 0 0 1-.348.348Zm2.068-7.314A6.966 6.966 0 0 1 17 16.652a.348.348 0 0 1-.348.348H10.6a.914.914 0 0 1-.914-.914v-6.052c0-.192.156-.348.348-.348Z"/>
  <path fill="#3076FA" d="M17 1.348a6.966 6.966 0 0 1-6.966 6.966.348.348 0 0 1-.348-.348V1.914c0-.505.41-.914.914-.914h6.052c.192 0 .348.156.348.348Z"/>
</svg>
