<svg xmlns="http://www.w3.org/2000/svg" width="18" height="18" fill="currentColor" viewBox="0 0 18 18">
  <g>
    <path fill="white" d="M15.248 3.17a14.66 14.66 0 0 0-3.714-1.166c-.16.29-.347.678-.476.988a13.635 13.635 0 0 0-4.115 0 10.61 10.61 0 0 0-.481-.988 14.612 14.612 0 0 0-3.717 1.17C.395 6.725-.242 10.188.076 13.602a14.847 14.847 0 0 0 4.555 2.334c.367-.504.694-1.04.975-1.606a9.592 9.592 0 0 1-1.536-.748c.13-.095.255-.195.377-.298 2.962 1.385 6.18 1.385 9.106 0 .123.103.25.203.377.298a9.567 9.567 0 0 1-1.54.75c.282.563.608 1.101.976 1.606a14.822 14.822 0 0 0 4.558-2.336c.373-3.957-.639-7.389-2.676-10.431ZM6.01 11.504c-.89 0-1.618-.83-1.618-1.841 0-1.01.713-1.842 1.618-1.842.905 0 1.634.83 1.618 1.842.002 1.01-.713 1.84-1.618 1.84Zm5.98 0c-.889 0-1.618-.83-1.618-1.841 0-1.01.713-1.842 1.618-1.842.905 0 1.634.83 1.618 1.842 0 1.01-.713 1.84-1.618 1.84Z"/>
  </g>
</svg>
