<svg width="24" height="24" viewBox="0 0 24 24" fill="none" xmlns="http://www.w3.org/2000/svg">
<path d="M12.9016 6.00156C12.9016 5.50451 12.4986 5.10156 12.0016 5.10156C11.5045 5.10156 11.1016 5.50451 11.1016 6.00156V11.1016H6.00156C5.50451 11.1016 5.10156 11.5045 5.10156 12.0016C5.10156 12.4986 5.50451 12.9016 6.00156 12.9016H11.1016V18.0016C11.1016 18.4986 11.5045 18.9016 12.0016 18.9016C12.4986 18.9016 12.9016 18.4986 12.9016 18.0016V12.9016H18.0016C18.4986 12.9016 18.9016 12.4986 18.9016 12.0016C18.9016 11.5045 18.4986 11.1016 18.0016 11.1016H12.9016V6.00156Z" fill="white"/>
</svg>
