<svg width="142" height="22" viewBox="0 0 142 22" fill="none" xmlns="http://www.w3.org/2000/svg">
<g clip-path="url(#clip0_360_1991)">
<path d="M110.923 21.98H95.4229C93.4176 21.9779 91.495 21.1914 90.077 19.793C88.6591 18.3947 87.8615 16.4987 87.8594 14.5211V8.17381C87.8615 6.19621 88.6591 4.30021 90.077 2.90184C91.495 1.50347 93.4176 0.71694 95.4229 0.714844H110.923V5.24249H95.4229C94.6348 5.24332 93.8793 5.55243 93.322 6.10198C92.7648 6.65153 92.4513 7.39663 92.4505 8.17381V14.5211C92.4513 15.2982 92.7648 16.0434 93.322 16.5929C93.8793 17.1424 94.6348 17.4516 95.4229 17.4524H110.923V21.98Z" fill="white"/>
<path d="M53.8933 0.708008V5.23407H44.6613V21.9906H40.0701V5.23407H30.7852V0.708008H53.8933Z" fill="white"/>
<path d="M84.953 21.9446H79.7773L70.8103 4.9093C70.7412 4.7941 70.6427 4.69872 70.5247 4.63261C70.4067 4.5665 70.2732 4.53195 70.1374 4.53239C69.9961 4.53298 69.8576 4.57108 69.7364 4.6427C69.6152 4.71431 69.5157 4.8168 69.4485 4.93939L60.4927 21.9446H55.3203L65.3938 2.8173C65.8515 1.96899 66.5339 1.25897 67.3684 0.762855C68.2029 0.266738 69.1582 0.00309547 70.1326 0L70.1423 0C71.1102 0.00206638 72.0598 0.261441 72.8909 0.750824C73.722 1.24021 74.404 1.9415 74.865 2.78088L84.953 21.9446Z" fill="white"/>
<path d="M65.5392 21.5568L69.8927 12.9734C69.9147 12.929 69.949 12.8915 69.9916 12.8653C70.0342 12.8391 70.0834 12.8252 70.1336 12.8252C70.1837 12.8252 70.2329 12.8391 70.2755 12.8653C70.3181 12.8915 70.3524 12.929 70.3744 12.9734L74.76 21.5584C74.7842 21.6049 74.7938 21.6575 74.7876 21.7095C74.7815 21.7614 74.7599 21.8104 74.7255 21.8503C74.6911 21.8901 74.6455 21.919 74.5945 21.9333C74.5435 21.9475 74.4893 21.9466 74.4388 21.9305L70.2219 20.5543C70.1665 20.5369 70.107 20.5369 70.0517 20.5543L65.8765 21.9289C65.8252 21.9488 65.7689 21.9528 65.7153 21.9402C65.6616 21.9277 65.6132 21.8992 65.5764 21.8587C65.5397 21.8181 65.5164 21.7674 65.5098 21.7135C65.5031 21.6595 65.5134 21.6048 65.5392 21.5568Z" fill="white"/>
<path d="M121.72 0.717773H117.129V21.9925H121.72V0.717773Z" fill="white"/>
<path d="M134.616 21.9925L125.432 15.6262C124.761 15.1266 124.217 14.4805 123.843 13.7385C123.468 12.9966 123.273 12.1791 123.273 11.3504C123.273 10.5216 123.468 9.70413 123.843 8.96221C124.217 8.22028 124.761 7.57413 125.432 7.07453L125.496 7.0286L134.606 0.717773H141.993V1.12477L128.178 10.7058C128.08 10.7836 128.001 10.882 127.947 10.9938C127.892 11.1056 127.864 11.228 127.864 11.352C127.864 11.4759 127.892 11.5983 127.947 11.7101C128.001 11.8219 128.08 11.9203 128.178 11.9981L141.999 21.576V21.9909L134.616 21.9925Z" fill="white"/>
<path d="M1.52073 22.0001V17.4725L20.0458 17.4598C20.462 17.4598 20.8612 17.2968 21.1557 17.0067C21.4502 16.7166 21.6158 16.3231 21.6163 15.9126C21.6163 14.8389 20.4697 14.4255 19.7904 14.3511C17.3431 14.0787 14.9889 13.8269 12.7311 13.5862C10.3625 13.3312 8.09345 13.0889 5.90148 12.8435C2.48103 12.4602 0 9.91216 0 6.78287C0.00212448 5.17236 0.651807 3.62841 1.80657 2.48961C2.96134 1.3508 4.52693 0.710103 6.16002 0.708008H24.6658V5.23565H6.16002C5.74405 5.23607 5.34524 5.39921 5.0511 5.68928C4.75697 5.97935 4.59153 6.37265 4.59111 6.78287C4.59111 7.855 5.73929 8.26833 6.41856 8.34593C8.60411 8.58981 10.8667 8.83211 13.2257 9.08549C15.49 9.32779 17.8425 9.57959 20.3011 9.85198C23.7215 10.2321 26.2042 12.7801 26.2042 15.9126C26.202 17.5231 25.5524 19.067 24.3976 20.2059C23.2428 21.3447 21.6772 21.9854 20.0441 21.9874L1.52073 22.0001Z" fill="white"/>
</g>
<defs>
<clipPath id="clip0_360_1991">
<rect width="142" height="22" fill="white"/>
</clipPath>
</defs>
</svg>
