<svg xmlns="http://www.w3.org/2000/svg" width="19" height="14" fill="none" viewBox="0 0 19 14">
  <path fill="white" d="M19 1.657a8.426 8.426 0 0 1-2.239.557c.805-.438 1.423-1.13 1.714-1.956-.753.406-1.587.7-2.475.858C15.289.429 14.276 0 13.154 0c-2.152 0-3.898 1.582-3.898 3.534 0 .277.035.547.101.806-3.24-.148-6.112-1.555-8.034-3.693a3.27 3.27 0 0 0-.528 1.777c0 1.226.688 2.308 1.734 2.941a4.191 4.191 0 0 1-1.766-.442v.045c0 1.712 1.344 3.14 3.127 3.466a4.28 4.28 0 0 1-1.76.06c.496 1.404 1.935 2.426 3.641 2.454-1.334.948-3.015 1.513-4.841 1.513a8.72 8.72 0 0 1-.93-.049A11.871 11.871 0 0 0 5.975 14c7.17 0 11.091-5.385 11.091-10.056 0-.153-.003-.306-.011-.457A7.554 7.554 0 0 0 19 1.657Z"/>
</svg>
